<?xml version="1.0" encoding="UTF-8"?>
<!DOCTYPE svg PUBLIC "-//W3C//DTD SVG 1.1//EN" "http://www.w3.org/Graphics/SVG/1.1/DTD/svg11.dtd">
<!-- Creator: CorelDRAW 2017 -->
<svg xmlns="http://www.w3.org/2000/svg" xml:space="preserve" width="102.89mm" height="48.9179mm" version="1.1" style="shape-rendering:geometricPrecision; text-rendering:geometricPrecision; image-rendering:optimizeQuality; fill-rule:evenodd; clip-rule:evenodd"
viewBox="0 0 12877 6122"
 xmlns:xlink="http://www.w3.org/1999/xlink">
 <defs>
  <style type="text/css">
   <![CDATA[
    .fil0 {fill:white;fill-rule:nonzero}
   ]]>
  </style>
 </defs>
 <g id="Capa_x0020_1">
  <metadata id="CorelCorpID_0Corel-Layer"/>
  <g id="_1746549116656">
   <path class="fil0" d="M4639 1953c-44,3 -71,9 -90,53 -55,112 -112,250 -176,415 -2,-22 -5,-41 -9,-59 -32,-101 -100,-187 -208,-257 -109,-69 -204,-100 -286,-95 -111,8 -217,59 -319,152 -102,93 -192,195 -270,337 -79,144 -143,296 -189,458 -46,162 -71,316 -71,462 0,333 136,590 483,566 90,-6 189,-48 290,-153 102,-106 201,-241 298,-404 -7,49 -8,96 -8,137 0,295 176,385 345,373 72,-5 150,-39 229,-104 78,-63 155,-139 230,-228 73,-89 139,-178 199,-265 60,-86 105,-160 141,-221 35,-60 54,-90 54,-90l-58 -40c0,0 -77,91 -181,193 -103,102 -219,196 -291,201 -27,0 -40,-24 -40,-70 0,-88 38,-234 112,-440 75,-206 161,-411 258,-618 5,-12 7,-22 7,-34 0,-41 -26,-86 -80,-129 -105,-85 -258,-146 -371,-142zm-493 409c60,-4 86,54 86,150 0,119 -40,285 -119,498 -179,266 -347,417 -427,422 -33,2 -51,-128 -51,-82l0 14c0,131 37,-274 99,-426 62,-152 133,-287 215,-401 80,-113 146,-173 197,-176zm2375 -1830c-24,2 -44,8 -64,20 -174,116 -346,307 -521,568 -174,264 -326,557 -461,877 -170,45 -284,77 -284,77 2,31 7,67 17,113 9,45 24,80 47,105 39,-9 79,-18 117,-25 -135,376 -201,702 -201,982 0,378 139,629 492,604 78,-5 154,-39 237,-105 79,-63 157,-138 229,-228 73,-89 139,-177 199,-265 57,-86 103,-160 136,-222 33,-60 50,-89 50,-89l-57 -37c0,0 -79,91 -187,194 -109,102 -239,197 -335,204 -113,8 -185,-75 -185,-261 0,-126 37,-296 110,-516 26,-74 55,-149 86,-227 49,-43 102,-91 157,-143 199,-12 364,3 494,40 2,-2 2,-17 2,-46 0,-26 -2,-59 -9,-101 -14,-78 -53,-150 -135,-169 -20,-5 -41,-8 -66,-11 108,-114 209,-228 302,-346 185,-231 310,-445 310,-589l0 -2c-11,-107 -71,-202 -183,-287 -112,-83 -212,-122 -298,-117zm209 412c-8,108 -68,245 -179,414 -112,169 -243,342 -390,517 -9,1 -17,1 -26,4 -2,0 -2,0 -5,0 183,-390 382,-702 600,-935zm750 536c86,-6 159,-42 221,-106 60,-64 90,-139 90,-225 0,-86 -31,-157 -90,-212 -62,-55 -135,-81 -221,-75 -86,6 -158,42 -218,105 -55,63 -86,139 -86,224 0,86 31,157 90,212 60,55 133,81 219,75l-5 0zm-558 320c-44,3 -72,5 -93,49 -62,128 -128,288 -198,481 -73,193 -135,388 -185,586 -57,200 -84,363 -84,493 0,295 176,385 344,373 148,-10 310,-152 458,-329 214,-260 396,-581 395,-577l-60 -40c0,0 -78,91 -179,193 -102,101 -219,196 -291,201 -29,0 -42,-24 -42,-70 0,-90 38,-236 112,-442 75,-206 161,-411 258,-618 5,-12 7,-22 7,-34 0,-41 -26,-86 -77,-129 -53,-43 -115,-76 -185,-104 -71,-26 -132,-38 -185,-34l5 0zm1918 -1429c-25,2 -44,7 -65,17 -199,135 -396,363 -592,679 -196,316 -359,662 -493,1036 -134,375 -203,705 -203,985 0,380 139,629 491,604 86,-6 176,-37 271,-90 186,-106 367,-264 515,-415 42,273 188,438 478,417 78,-5 154,-39 236,-105 79,-63 156,-138 229,-228 72,-89 139,-177 198,-265 57,-85 103,-159 139,-221 33,-60 50,-89 50,-89l-60 -40c0,0 -79,91 -187,194 -108,106 -237,201 -335,208 -108,7 -182,-76 -182,-261 0,-79 13,-177 41,-294 117,-136 244,-290 383,-461 136,-171 267,-342 392,-517 126,-174 229,-334 310,-483 81,-147 121,-265 121,-351 0,-68 -29,-134 -84,-199 -55,-62 -121,-113 -196,-152 -75,-38 -141,-57 -198,-53 -26,2 -48,8 -64,18 -191,130 -381,347 -570,647 -192,302 -353,629 -485,985 -133,356 -209,684 -230,979 -143,115 -329,219 -504,231 -109,8 -183,-73 -183,-259 0,-126 38,-296 110,-516 102,-292 231,-586 385,-877 152,-295 316,-530 486,-713 0,81 -46,215 -139,401 -93,185 -201,382 -328,589 -126,210 -245,397 -356,563l60 34c0,0 35,-45 106,-131 69,-86 154,-196 258,-329 102,-133 203,-275 307,-423 102,-146 188,-285 258,-413 69,-128 104,-228 104,-298 0,-69 -29,-135 -84,-200 -55,-62 -121,-113 -196,-152 -75,-38 -142,-56 -199,-52zm1469 324c-6,119 -50,260 -132,420 -81,162 -180,328 -301,500 -121,171 -244,335 -370,489 103,-270 225,-532 365,-787 139,-254 286,-461 438,-622zm1309 775c-44,3 -71,9 -90,53 -55,112 -112,250 -176,415 -2,-22 -5,-41 -9,-59 -32,-101 -100,-187 -208,-257 -109,-69 -204,-100 -286,-95 -111,8 -217,59 -319,152 -102,93 -192,211 -270,354 -79,144 -143,296 -189,458 -47,162 -71,316 -71,462 0,333 136,590 483,566 90,-6 188,-64 290,-170 102,-106 201,-241 298,-404 -7,49 -8,96 -8,137 0,295 176,385 345,373 72,-5 150,-39 229,-104 78,-63 155,-139 230,-228 73,-89 139,-178 199,-265 60,-86 105,-160 141,-221 35,-60 54,-90 54,-90l-58 -40c0,0 -77,91 -181,193 -103,102 -219,196 -291,201 -27,0 -40,-24 -40,-70 0,-88 38,-234 112,-440 75,-206 161,-411 258,-618 5,-12 7,-22 7,-34 0,-41 -26,-86 -80,-129 -105,-85 -258,-146 -371,-142zm-493 409c60,-4 86,54 86,150 0,119 -40,285 -119,498 -179,266 -347,417 -427,422 -33,2 -51,-19 -51,-65l0 -2c5,-131 38,-274 99,-426 63,-152 133,-287 215,-401 80,-113 146,-173 197,-176z"/>
   <path class="fil0" d="M2465 2c-174,12 -372,58 -590,138 -222,81 -435,191 -642,326 -209,136 -389,297 -539,475 -152,180 -253,376 -297,588 -8,38 -12,76 -12,112 0,112 28,212 84,301 111,178 285,287 430,277 -2,-36 -5,-73 -5,-108 0,-231 52,-448 154,-652 102,-205 235,-388 395,-546 159,-156 333,-282 515,-378 183,-96 357,-148 518,-159 337,-23 601,155 601,616 0,171 -71,376 -216,616 -145,241 -325,473 -542,698 -218,228 -444,413 -675,560 88,-246 176,-476 261,-690 150,-379 264,-672 264,-812 0,-197 -97,-327 -204,-407 -106,-79 -204,-109 -204,-109 0,0 -49,123 -147,365 -99,245 -213,535 -340,869 -127,337 -241,659 -340,964 -99,306 -485,1801 -485,1927 0,202 87,335 199,423 164,128 366,157 364,160l0 -59c0,-256 387,-1820 470,-2118 277,-50 540,-156 788,-323 248,-167 466,-363 659,-592 193,-229 341,-463 453,-706 111,-241 166,-456 166,-648 0,-357 -388,-1156 -1084,-1107z"/>
   <path class="fil0" d="M77 5917c20,-6 6793,-2888 12512,-2118 393,20 403,910 -91,867 -5606,-754 -12338,1441 -12357,1447 -102,46 -222,-106 -63,-196z"/>
  </g>
 </g>
</svg>
